/* XPM */
static char *_1129fdc9c8848a0ac2b5a305abb76f81uhMbcgteDbJddAK[] = {
/* columns rows colors chars-per-pixel */
"16 16 17 1 ",
"  c None",
". c #332E23",
"X c #342F23",
"o c #574C26",
"O c #584D27",
"+ c #605427",
"@ c #615527",
"# c #817D72",
"$ c #827D72",
"% c #D6D3CC",
"& c #D6D4CD",
"* c #D6D4CF",
"= c #D9D6CF",
"- c #D3D2D1",
"; c #D6D5D5",
": c #D9D6D0",
"> c #D9D7D1",
/* pixels */
"     >====>     ",
"                ",
"                ",
"                ",
"                ",
">              &",
"=              %",
"=     XOo.     %",
">   ;-#@+#-;   %",
"=              %",
"=              &",
"                ",
"                ",
"                ",
"                ",
"     :%%%%&     "
};
