/* XPM */
static char *_b07656b0f704082d7878d232a5fc34eLPKozkENC6BrFToO[] = {
/* columns rows colors chars-per-pixel */
"64 64 132 2 ",
"   c None",
".  c #1A1719",
"X  c #1C1919",
"o  c #1D1A19",
"O  c #1C191A",
"+  c #1D1A1A",
"@  c #1D1B1A",
"#  c #1E1B1A",
"$  c #1F1C1A",
"%  c #201D1B",
"&  c #221E1B",
"*  c #27231C",
"=  c #26221D",
"-  c #2C271F",
";  c #312C20",
":  c #342E21",
">  c #363020",
",  c #373120",
"<  c #373123",
"1  c #373223",
"2  c #453D24",
"3  c #413B28",
"4  c #473F2A",
"5  c #4C4425",
"6  c #4E4526",
"7  c #4F4626",
"8  c #544821",
"9  c #544921",
"0  c #554922",
"q  c #554A22",
"w  c #564A22",
"e  c #564B22",
"r  c #584C23",
"t  c #5B512C",
"y  c #6A5D2A",
"u  c #6B5D2A",
"i  c #6B5E2A",
"p  c #6C5E2A",
"a  c #6C5F2A",
"s  c #6D5F2B",
"d  c #6A5E2D",
"f  c #6B5E2D",
"g  c #6B5F2D",
"h  c #6D5F2D",
"j  c #6D602B",
"k  c #6E602A",
"l  c #6E602B",
"z  c #6E612B",
"x  c #6F612D",
"c  c #70622B",
"v  c #70622C",
"b  c #70622D",
"n  c #70622F",
"m  c #73662F",
"M  c #75682F",
"N  c #716330",
"B  c #736531",
"V  c #756731",
"C  c #7D6E33",
"Z  c #7C6D34",
"A  c #7D6E35",
"S  c #7E6F34",
"D  c #494240",
"F  c #514846",
"G  c #635B58",
"H  c #6B6360",
"J  c #6D6563",
"K  c #6E6563",
"L  c #857533",
"P  c #867633",
"I  c #877733",
"U  c #817236",
"Y  c #827336",
"T  c #837337",
"R  c #857535",
"E  c #847437",
"W  c #877736",
"Q  c #877833",
"!  c #887835",
"~  c #8A7A35",
"^  c #8C7C39",
"/  c #8D7D3A",
"(  c #817A77",
")  c #827A78",
"_  c #837B78",
"`  c #847D7A",
"'  c #93823A",
"]  c #94833A",
"[  c #97863E",
"{  c #98873F",
"}  c #A28F3C",
"|  c #A3913D",
" . c #A2903F",
".. c #A18F41",
"X. c #A29042",
"o. c #A49140",
"O. c #B5A149",
"+. c #B6A249",
"@. c #8A827F",
"#. c #D5BE5F",
"$. c #D5BF60",
"%. c #D5BF61",
"&. c #D5BF62",
"*. c #D5BF63",
"=. c #D8C263",
"-. c #DAC464",
";. c #8A8280",
":. c #A39B99",
">. c #A39C9A",
",. c #A59E9C",
"<. c #A69F9D",
"1. c #BCB7B6",
"2. c #BEBAB9",
"3. c #BFBAB9",
"4. c #D2D0D0",
"5. c #D3D1D1",
"6. c #D7D6D6",
"7. c #D7D6D7",
"8. c #D8D6D7",
"9. c #D8D7D7",
"0. c #D8D7D8",
"q. c #D8D7D9",
"w. c #D8D8D8",
"e. c #D9D8D8",
"r. c #D8D8D9",
"t. c #D9D8D9",
"y. c gray85",
"u. c #DAD9D9",
"i. c #D9D8DA",
"p. c #D9D9DA",
"a. c #DADADA",
"s. c #DBDADA",
/* pixels */
"                                                                                                                                ",
"                                        u.u.u.u.u.u.u.u.u.u.u.u.u.u.u.u.u.u.u.u.u.u.u.u.                                        ",
"                                      u.u.9.9.9.9.9.9.9.9.9.9.9.9.9.9.9.9.9.9.9.9.9.9.0.u.                                      ",
"                                    u.u.7.                                            0.u.u.                                    ",
"                                                                                        7.w.u.                                  ",
"                        =.&.&.#.#.&.&.#.&.&.&.=.&.&.&.&.&.&.&.&.&.&.&.&.&.&.&.&.&.&.&.    w.w.u.    &.=.                        ",
"                      -.                                                                    9.u.u.      -.                      ",
"                    -.      u.0.0.                                                            u.u.u.      -.                    ",
"                  -.      u.9.9.                                                                w.w.u.      -.                  ",
"                -.      u.9.9.                                                                    6.u.u.      -.                ",
"              -.      u.9.9.                                                                        u.7.u.      -.              ",
"            -.      u.9.9.                                                                            6.u.u.      -.            ",
"          =.      u.9.9.                                                                                9.u.u.      =.          ",
"          &.    u.9.9.                                                                                    0.6.u.    &.          ",
"              u.9.9.                                                                                        6.u.u.  &.          ",
"            u.9.9.                                                                                            6.u.  #.          ",
"          u.9.9.                                                                                                u.  #.          ",
"        u.9.9.                                                                                                      &.          ",
"      u.9.9.                                                                                                        &.  u.      ",
"    u.9.9.                                                                                                          &.  7.u.    ",
"  u.9.0.                                                                                                            &.  u.u.7.  ",
"  u.9.    &.                                                                                                        &.    0.6.  ",
"  u.9.    &.                                                                                                        &.    7.6.  ",
"  u.0.    &.                                      +.                        +.                                      &.    0.6.  ",
"  u.u.    &.                                        X.{                 [ ..                                        &.    9.6.  ",
"  u.9.    &.                                          / A             C /                                           &.    0.6.  ",
"  u.9.    &.                                            b             x                                             &.    9.6.  ",
"  u.9.    &.                                            A h         f A                                             &.    9.6.  ",
"  u.9.    &.                                    3 - t ] o.W W B B E E } ' t - 3                                     &.    9.6.  ",
"  u.9.    &.                      9.9.          & o o = 2 M z w 9 i m 2 = o o &           9.9.                      &.    9.6.  ",
"  u.9.    &.                      9.9.9.9.      = o o @ . 6 c w 9 a 6 . o $ o =       9.9.9.9.                      &.    9.6.  ",
"  u.9.    &.                      9.9.9.9.9.0.  < o o $ o < a w 9 i < O $ o o <   0.9.9.9.9.9.                      &.    9.6.  ",
"  u.9.    &.                      9.9.9.9.9.9.u.  ; o o & 6 a w 9 i 5 $ o $ :   u.9.9.9.9.9.9.                      &.    9.6.  ",
"  u.9.    &.                      9.9.9.  9.9.0.s.  5 : f I h w 8 i L f : 4   u.9.9.9.  9.9.9.                      &.    9.6.  ",
"  u.9.    &.                      9.9.9.    u.6.0.      | Q z w 8 i L }       0.0.0.    9.9.9.                      &.    9.6.  ",
"  u.9.    &.                        5.5.      5.5.5.      ~ z w 9 i !       5.5.5.      5.5.                        &.    9.6.  ",
"  u.9.    &.                          3.        3.3.1.      b w 8 z       1.3.3.        3.                          &.    9.6.  ",
"  u.9.    &.                          ,.          >.:.      U r w U       :.>.          ,.                          &.    9.6.  ",
"  u.9.    &.                            )         ;.` )       N b       ( ` ;.        )                             &.    9.6.  ",
"  u.9.    =.                              G         J H                 H J         G                               &.    9.6.  ",
"  u.6.    &.                              F D                                     D F                               &.    0.6.  ",
"  u.u.    &.                                                                                                        &.    7.6.  ",
"  u.u.    &.                                                                                                        &.    6.6.  ",
"  u.6.7.  &.                                                                                                            u.9.u.  ",
"    u.7.  #.                                                                                                          w.w.u.    ",
"      u.  &.                                                                                                        0.6.u.      ",
"          &.                                                                                                      0.u.u.        ",
"          #.  u.                                                                                                6.u.u.          ",
"          &.  w.6.                                                                                            9.9.u.            ",
"          &.  u.u.9.                                                                                        9.9.u.              ",
"          &.    u.u.6.                                                                                    u.6.u.    &.          ",
"          =.      u.w.6.                                                                                9.6.u.      =.          ",
"            -.      u.u.0.                                                                            9.9.u.      -.            ",
"              -.      u.u.7.                                                                        0.6.u.      -.              ",
"                -.      u.w.9.                                                                    6.u.u.      -.                ",
"                  -.      u.u.9.                                                                u.6.9.      -.                  ",
"                    -.      u.u.w.                                                            u.6.u.      -.                    ",
"                      -.      u.w.6.                                                                    -.                      ",
"                        =.&.    u.u.u.    =.*.&.&.&.&.&.&.&.&.&.&.&.&.&.&.&.&.&.&.&.&.&.&.&.&.#.&.&.&.=.                        ",
"                                  u.7.6.                                                                                        ",
"                                    u.u.u.                                            7.7.u.                                    ",
"                                      u.9.0.6.9.9.9.9.9.9.9.9.9.9.9.9.9.9.9.9.9.9.6.9.u.u.                                      ",
"                                        u.6.6.6.6.6.6.6.6.6.6.6.6.6.6.6.6.6.6.6.6.6.6.u.                                        ",
"                                                                                                                                "
};
