/* XPM */
static char *a5db4b749ffe4ec1df38e84b729237b2dc63abhxvuza3TSQ[] = {
/* columns rows colors chars-per-pixel */
"32 32 49 1 ",
"  c None",
". c #1A1819",
"X c #1B1819",
"o c #27231E",
"O c #2C271D",
"+ c #2C271F",
"@ c #342E1F",
"# c #352F1F",
"$ c #443D25",
"% c #564D28",
"& c #584E28",
"* c #5D5125",
"= c #5F5326",
"- c #615526",
"; c #635627",
": c #635628",
"> c #645828",
", c #6A5D2B",
"< c #6C5E2B",
"1 c #6F622F",
"2 c #706330",
"3 c #7D6E33",
"4 c #7E6F34",
"5 c #7D7573",
"6 c #8E7D36",
"7 c #8F7F36",
"8 c #817D73",
"9 c #A8A1A1",
"0 c #B5AFAE",
"q c #D7D4C8",
"w c #D8D4C8",
"e c #D5D3D3",
"r c #D5D4D4",
"t c #D6D4D4",
"y c #D6D5D5",
"u c #D7D5D5",
"i c #D7D5D6",
"p c #D8D6D3",
"a c #D8D7D3",
"s c #D9D7D3",
"d c #D8D7D7",
"f c #D9D7D7",
"g c #D8D7D8",
"h c #D8D8D8",
"j c #D9D8D8",
"k c #D8D8D9",
"l c #D9D8D9",
"z c #DAD9D9",
"x c #D9D8DA",
/* pixels */
"          lllzllzllzll          ",
"         djdjjddjjjjdgl         ",
"                      pl        ",
"       w               gs       ",
"      ll                gl      ",
"     ld                  jl     ",
"    ld                    jl    ",
"   dg                      lw   ",
"  lg                            ",
" lp                           d ",
"lg                            dt",
"ld                            te",
"zj                            de",
"lj            4  4            te",
"lj          +$2,,2$+          ge",
"zj       dl oX#-*@Xo lg       te",
"ld       ddl8O&-*%+8ljd       de",
"ld       e tt 7;-6 tt e       te",
"zj          09 >: 90          de",
"lj           5    5           ee",
"lj                            ge",
"zj                            ge",
" d                           dg ",
"                            jl  ",
"   wl                      lj   ",
"    ld                    tl    ",
"     ld                  dl     ",
"      lg                gl      ",
"       dg               q       ",
"        lp                      ",
"         lgttgtggttdtlj         ",
"          teeeeeeeeeet          "
};
